<?xml version="1.0" standalone="no"?>
<!DOCTYPE svg PUBLIC "-//W3C//DTD SVG 20010904//EN" "http://www.w3.org/TR/2001/REC-SVG-20010904/DTD/svg10.dtd">
<svg version="1.0" xmlns="http://www.w3.org/2000/svg"
    width="150.000000pt" height="150.000000pt" viewBox="0 0 150.000000 150.000000"
    preserveAspectRatio="xMidYMid meet">

    <g transform="translate(0.000000,150.000000) scale(0.100000,-0.100000)"
        fill="#111" stroke="none">
        <path
            d="M665 1141 c-115 -52 -155 -186 -90 -298 l25 -41 -45 -29 c-49 -30
-57 -57 -33 -108 9 -21 18 -25 55 -25 38 0 43 -3 43 -23 0 -41 -50 -126 -98
-165 -129 -105 -152 -142 -168 -259 l-7 -53 398 0 398 0 -5 68 c-6 81 -34 140
-85 179 -108 83 -165 155 -174 223 -4 23 0 25 41 30 35 4 47 10 57 30 24 48
17 73 -32 103 -49 31 -53 38 -30 57 8 7 22 35 30 64 51 169 -120 320 -280 247z
m40 -33 c-50 -27 -94 -88 -116 -158 -7 -23 -7 -23 -8 8 -2 58 45 129 99 151
34 13 50 13 25 -1z m-77 -353 c-8 -19 -19 -25 -42 -25 l-30 0 34 25 c45 31 52
31 38 0z m-13 -293 c-16 -52 -19 -56 -125 -135 -25 -18 -55 -48 -67 -66 -28
-41 -30 -21 -4 35 12 27 38 56 73 81 59 44 128 117 128 135 0 6 2 9 5 6 3 -2
-2 -28 -10 -56z" />
    </g>
</svg>