<?xml version="1.0" standalone="no"?>
<!DOCTYPE svg PUBLIC "-//W3C//DTD SVG 20010904//EN" "http://www.w3.org/TR/2001/REC-SVG-20010904/DTD/svg10.dtd">
<svg version="1.0" xmlns="http://www.w3.org/2000/svg"
    width="150.000000pt" height="150.000000pt" viewBox="0 0 150.000000 150.000000"
    preserveAspectRatio="xMidYMid meet">

    <g transform="translate(0.000000,150.000000) scale(0.100000,-0.100000)"
        fill="#111" stroke="none">
        <path
            d="M557 1323 c-8 -10 -20 -38 -27 -63 -7 -29 -27 -61 -55 -90 -48 -51
-59 -69 -85 -146 -10 -29 -51 -101 -91 -159 -84 -122 -92 -155 -45 -204 29
-31 109 -61 160 -61 27 0 38 8 64 44 28 38 38 45 89 55 43 8 73 22 116 56 l57
45 0 -32 c0 -29 -13 -46 -104 -133 -106 -101 -149 -158 -161 -208 -5 -18 -19
-33 -41 -43 -53 -25 -74 -69 -77 -161 l-2 -78 438 -3 439 -2 -4 89 c-3 87 -4
91 -37 125 -19 20 -41 36 -48 36 -17 0 -17 4 14 117 65 236 17 452 -131 591
-72 66 -151 108 -243 127 -58 12 -73 20 -117 64 -54 54 -83 62 -109 34z m47
-39 c3 -9 6 -31 6 -50 0 -29 -10 -44 -64 -97 -53 -52 -67 -73 -85 -129 -18
-54 -41 -91 -112 -178 -49 -61 -89 -107 -89 -101 0 6 29 53 64 104 73 106 96
150 120 223 11 33 32 65 62 95 32 31 49 59 60 97 16 53 27 64 38 36z m336
-903 c133 -9 202 -25 223 -49 10 -13 8 -15 -13 -9 -14 4 -99 12 -189 18 -175
12 -470 0 -526 -21 -29 -11 -29 -11 -10 10 25 27 80 41 200 50 143 10 175 10
315 1z" />
    </g>
</svg>