<?xml version="1.0" standalone="no"?>
<!DOCTYPE svg PUBLIC "-//W3C//DTD SVG 20010904//EN" "http://www.w3.org/TR/2001/REC-SVG-20010904/DTD/svg10.dtd">
<svg version="1.0" xmlns="http://www.w3.org/2000/svg"
    width="150.000000pt" height="150.000000pt" viewBox="0 0 150.000000 150.000000"
    preserveAspectRatio="xMidYMid meet">

    <g transform="translate(0.000000,150.000000) scale(0.100000,-0.100000)"
        fill="#111" stroke="none">
        <path
            d="M654 1243 c-6 -5 -15 -39 -20 -78 -8 -61 -12 -70 -31 -73 -17 -3 -22
3 -28 30 -4 18 -11 50 -17 72 l-9 38 -50 -6 c-28 -4 -66 -15 -86 -24 l-36 -17
7 -104 c4 -57 13 -118 20 -136 12 -28 51 -68 76 -77 13 -4 -44 -461 -58 -466
-30 -10 -79 -51 -92 -77 -8 -17 -16 -65 -18 -107 l-4 -78 442 0 443 0 -5 84
c-5 93 -19 125 -71 156 -18 11 -36 21 -41 23 -4 1 -20 105 -35 230 l-27 228
33 25 c49 37 61 69 70 188 10 124 9 125 -77 145 -82 19 -87 17 -100 -41 -20
-89 -20 -89 -43 -86 -19 3 -23 13 -32 78 l-10 75 -95 3 c-52 1 -100 -1 -106
-5z m49 -56 c-32 -38 -38 -39 -29 -3 4 15 15 26 29 29 12 2 24 5 25 6 2 0 -9
-14 -25 -32z m294 -21 c-25 -29 -28 -28 -20 2 3 12 13 22 23 22 17 0 17 -2 -3
-24z m-535 2 c-6 -7 -15 -40 -21 -72 -6 -33 -13 -61 -15 -63 -2 -3 -6 26 -8
62 -3 60 -1 68 17 76 30 12 39 11 27 -3z m442 -788 c98 -7 151 -16 182 -30 48
-20 63 -47 18 -30 -76 29 -515 35 -668 9 -32 -6 -61 -8 -64 -5 -3 3 16 15 41
26 32 15 82 23 159 29 164 12 179 12 332 1z" />
    </g>
</svg>