<?xml version="1.0" standalone="no"?>
<!DOCTYPE svg PUBLIC "-//W3C//DTD SVG 20010904//EN" "http://www.w3.org/TR/2001/REC-SVG-20010904/DTD/svg10.dtd">
<svg version="1.0" xmlns="http://www.w3.org/2000/svg"
    width="150.000000pt" height="150.000000pt" viewBox="0 0 150.000000 150.000000"
    preserveAspectRatio="xMidYMid meet">

    <g transform="translate(0.000000,150.000000) scale(0.100000,-0.100000)"
        fill="#eee" stroke="#000" stroke-width="21">
        <path
            d="M521 1323 c-46 -23 -71 -67 -71 -125 0 -41 5 -54 35 -87 39 -43 41
-58 28 -220 l-6 -83 -47 53 c-42 48 -46 57 -38 81 13 37 -4 87 -43 124 -26 25
-38 29 -84 29 -46 0 -58 -4 -85 -30 -45 -43 -56 -94 -31 -150 14 -31 30 -50
53 -61 31 -14 40 -32 123 -231 49 -119 85 -218 79 -220 -83 -28 -114 -78 -114
-185 l0 -78 435 0 435 0 0 78 c0 107 -31 157 -114 185 -6 2 30 101 79 220 83
199 92 217 123 231 47 23 77 91 63 144 -24 87 -120 128 -191 80 -48 -32 -76
-90 -63 -132 9 -30 7 -36 -37 -85 l-47 -53 -6 92 c-12 166 -11 174 28 213 30
30 35 41 35 84 0 90 -66 151 -151 140 -97 -13 -150 -122 -99 -204 l19 -32 -36
-106 c-19 -58 -37 -104 -39 -102 -2 2 -20 50 -39 106 l-34 102 19 32 c36 58
19 141 -37 181 -36 26 -100 31 -142 9z m24 -45 c-15 -12 -36 -40 -46 -62 -20
-45 -26 -28 -8 23 6 17 23 38 38 46 39 21 47 18 16 -7z m340 0 c-15 -12 -33
-35 -41 -52 -12 -28 -13 -29 -14 -8 0 24 49 82 71 82 6 0 -1 -10 -16 -22z
m-624 -234 c-13 -9 -32 -35 -43 -58 l-19 -41 5 35 c6 34 45 80 69 80 6 0 1 -7
-12 -16z m920 0 c-13 -9 -32 -35 -43 -58 l-19 -41 5 35 c6 34 45 80 69 80 6 0
1 -7 -12 -16z m-161 -675 c58 -9 118 -34 108 -45 -2 -2 -33 2 -69 8 -94 16
-547 13 -627 -5 -60 -13 -61 -13 -45 5 22 24 79 39 193 48 109 9 345 3 440
-11z" />
    </g>
</svg>