<?xml version="1.0" standalone="no"?>
<!DOCTYPE svg PUBLIC "-//W3C//DTD SVG 20010904//EN" "http://www.w3.org/TR/2001/REC-SVG-20010904/DTD/svg10.dtd">
<svg version="1.0" xmlns="http://www.w3.org/2000/svg"
    width="150.000000pt" height="150.000000pt" viewBox="0 0 150.000000 150.000000"
    preserveAspectRatio="xMidYMid meet">

    <g transform="translate(0.000000,150.000000) scale(0.100000,-0.100000)"
        fill="#eee" stroke="#000" stroke-width="21">
        <path
            d="M660 1330 l0 -50 -50 0 -50 0 0 -90 0 -90 45 0 c46 0 53 -8 39 -43
-4 -13 -12 -13 -56 0 -67 20 -220 14 -265 -10 -94 -50 -147 -143 -148 -257 0
-102 23 -146 146 -277 55 -58 99 -108 99 -112 0 -3 -15 -14 -33 -24 -49 -26
-67 -64 -74 -157 l-6 -80 442 0 441 0 0 73 c0 85 -20 132 -67 162 -18 11 -32
23 -33 27 0 4 43 53 97 110 117 125 147 183 146 278 0 87 -31 158 -93 213 -27
24 -66 49 -88 55 -54 16 -179 15 -236 -2 -41 -12 -48 -12 -52 0 -2 8 -6 21 -9
29 -3 12 5 15 40 15 l45 0 0 89 0 90 -47 3 -48 3 -3 48 -3 47 -90 0 -89 0 0
-50z m47 -67 c-2 -16 -4 -3 -4 27 0 30 2 43 4 28 2 -16 2 -40 0 -55z m-100
-90 c-2 -16 -4 -5 -4 22 0 28 2 40 4 28 2 -13 2 -35 0 -50z m-214 -154 c-105
-41 -183 -168 -170 -278 5 -38 4 -42 -4 -21 -15 34 -5 139 16 180 32 65 86
110 155 131 51 15 53 7 3 -12z m193 -205 l34 -16 0 -94 c0 -128 -11 -132 -102
-35 -72 77 -83 108 -51 143 20 23 73 24 119 2z m454 -4 c11 -11 20 -28 20 -38
0 -29 -126 -167 -153 -167 -21 0 -22 3 -22 95 l0 95 35 17 c47 24 95 23 120
-2z m5 -444 c31 -8 66 -23 77 -33 19 -20 19 -20 -40 -8 -143 30 -606 26 -688
-5 -28 -11 -28 -11 -10 9 26 28 73 42 179 51 122 11 409 2 482 -14z" />
    </g>
</svg>