<?xml version="1.0" standalone="no"?>
<!DOCTYPE svg PUBLIC "-//W3C//DTD SVG 20010904//EN" "http://www.w3.org/TR/2001/REC-SVG-20010904/DTD/svg10.dtd">
<svg version="1.0" xmlns="http://www.w3.org/2000/svg"
    width="150.000000pt" height="150.000000pt" viewBox="0 0 150.000000 150.000000"
    preserveAspectRatio="xMidYMid meet">

    <g transform="translate(0.000000,150.000000) scale(0.100000,-0.100000)"
        fill="#eee" stroke="#000" stroke-width="21">
        <path
            d="M684 1360 c-58 -23 -92 -108 -63 -162 10 -18 3 -28 -54 -87 -132
-134 -182 -241 -182 -391 0 -110 19 -178 70 -255 l34 -49 -50 -13 c-100 -26
-130 -65 -137 -185 l-5 -78 443 0 443 0 -5 84 c-6 119 -45 167 -145 182 l-42
6 31 46 c58 85 72 135 73 262 0 108 -2 119 -31 180 -33 69 -102 166 -152 213
l-30 29 -30 -64 c-36 -77 -53 -147 -61 -253 l-6 -80 -42 -3 -43 -3 0 39 c0 62
28 210 55 286 13 38 41 94 61 125 24 35 37 65 35 80 -9 74 -94 121 -167 91z
m-12 -69 c-9 -16 -18 -28 -21 -26 -4 5 27 55 34 55 2 0 -4 -13 -13 -29z m-43
-190 c-79 -83 -150 -227 -183 -372 l-25 -104 0 88 c-1 104 19 169 79 262 38
59 176 203 185 193 2 -2 -23 -32 -56 -67z m257 -721 c141 -9 217 -27 228 -55
4 -11 0 -12 -20 -4 -77 28 -515 34 -668 8 -32 -6 -61 -8 -64 -5 -3 3 16 15 43
27 34 15 80 23 159 29 161 10 167 10 322 0z" />
    </g>
</svg>